<?xml version="1.0" encoding="utf-8"?>
<!-- Generator: Adobe Illustrator 27.5.0, SVG Export Plug-In . SVG Version: 6.00 Build 0)  -->
<svg version="1.1" id="Capa_1" xmlns="http://www.w3.org/2000/svg" xmlns:xlink="http://www.w3.org/1999/xlink" x="0px" y="0px"
	 viewBox="0 0 1898 2372" style="enable-background:new 0 0 1898 2372;" xml:space="preserve">
<g>
	<path style="fill:#FABEAF;" d="M847.365,2023.972c3.448,13.7-0.779,42.237-0.779,42.237c-1.656,14.17-28.728,30.964-58.176,48.156
		c0,0-15.721,14.795-14.283,18.131c3.753,8.721,7.768,8.138,15.699,7.272c20.22-2.214,37.318-10.761,56.383-15.092
		c9.723-2.209,29.044-4.434,35.287-13.236c7.615-10.728,0.812-22.688-0.218-35.821l3.786-60.848L847.365,2023.972z"/>
	<path style="fill:#0C1E3D;" d="M832.521,2108.953c-10.769,3.873-32.759,13.787-44.111,5.412
		c-12.42,7.345-22.295,14.555-23.063,18.098c-2.277,10.366,14.631,11.066,22.551,10.195c20.22-2.209,38.729-11.121,57.794-15.454
		c9.723-2.203,31.147-5.104,37.389-13.901c6.678-9.421,4.636-23.796-1.198-32.923
		C870.417,2095.899,850.126,2102.632,832.521,2108.953z"/>
	<path style="fill:#FABEAF;" d="M1023.553,2023.972c-3.448,13.7,0.795,42.237,0.795,42.237c1.634,14.17,28.717,30.964,58.17,48.156
		c0,0,15.715,14.795,14.283,18.131c-3.759,8.721-7.784,8.138-15.705,7.272c-20.22-2.214-37.324-10.761-56.389-15.092
		c-9.729-2.209-29.033-4.434-35.276-13.236c-7.62-10.728-0.828-22.688,0.208-35.821l-3.77-60.848L1023.553,2023.972z"/>
	<path style="fill:#0C1E3D;" d="M1038.397,2108.953c10.78,3.873,32.765,13.787,44.111,5.412
		c12.425,7.345,22.295,14.555,23.074,18.098c2.261,10.366-14.636,11.066-22.557,10.195c-20.23-2.209-38.729-11.121-57.788-15.454
		c-9.723-2.203-31.153-5.104-37.395-13.901c-6.689-9.421-4.636-23.796,1.193-32.923
		C1000.501,2095.899,1020.791,2102.632,1038.397,2108.953z"/>
	<path style="fill:#F69284;" d="M869.578,298.973c0.06-0.126,0.114-0.248,0.18-0.37c11.646-24.131,39.906-30.109,63.503-38.647
		c49.602-17.91,112.206,22.287,135.58,64.007c15.383,27.459,11.777,75.086,13.607,105.054c2.724,44.743,8.106,66.7,33.337,103.013
		c19.882,28.601,33.326,62.436,29.883,96.747c-4.064,40.562-23.031,74.28-47.576,107.35
		c-29.807,40.137-27.617,69.982-28.014,117.138c-0.333,40.737-19.638,91.112-69.266,89.573
		c-46.59-1.439-82.933-41.102-106.634-77.333c-34.159-52.23-31.425-117.743-20.585-176.308c4.287-23.104,10.377-48.137,7.158-72.137
		c-2.806-20.977-14.462-33.307-24.011-51.446c-30.227-57.38-21.914-124.813-7.408-185.41
		C855.149,355.933,859.071,321.039,869.578,298.973z"/>
	<path style="fill:#DF8479;" d="M886.579,306.016c6.035-14.914,13.792-28.688,24.621-38.615c24.969-22.87,78.7-9.903,104.302,4.728
		c22.3,12.746,43.076,25.945,51.568,50.74c20.465,59.685,4.472,126.047,29.475,184.629c18.139,42.469,40.647,80.155,35.798,127.951
		c-1.787,17.646-9.663,38.694-19.729,53.559c-67.948,100.296-63.922,187.81-73.634,202.31
		c-25.738,38.443-21.222-110.55-61.738-129.996c-28.216-13.548-43.969-38.711-61.106-63.514
		c-8.988-13.013-18.139-25.879-26.658-39.17c-9.87-15.356-20.056-33.903-16.363-53.273c3.497-18.354,26.43-24.807,34.601-42.009
		c8.116-17.065,4.897-39.957-0.512-57.372c-8.661-27.892-29.094-50.648-37.368-79.689c-6.014-21.105-7.179-41.946-0.795-63.702
		C874.029,345.581,878.942,324.887,886.579,306.016z"/>
	<path style="fill:#0C1E3D;" d="M826.355,1551.246c6.94,40.772,20.939,47.979,52.429,49.833c31.49,1.852,17.469-4.943,21.282-36.847
		c-0.273-15.658,25.83-267.145,27.9-282.806c15.383-116.683,22.023-194.008,22.023-194.008v-99.607H832.821
		c-13.438,44.574-33.059,97.461-33.059,194.891C799.762,1333.306,823.871,1528.036,826.355,1551.246z"/>
	<path style="fill:#0C1E3D;" d="M866.332,1512.237c-22.873-2.86-40.532,34.127-40.532,34.127c6.7,50.179-9.141,92.035-8.083,176.275
		c1.22,96.902,26.555,322.49,26.555,322.49c15.165,2.792,33.484,9.516,46.525-5.986c0,0,12.43-235.816,17.987-317.656
		c5.556-81.841-12.496-107.203-8.378-163.924C898.399,1523.262,884.106,1514.454,866.332,1512.237z"/>
	<path style="fill:#122444;" d="M1046.376,1551.246c-6.939,40.772-20.939,47.979-52.434,49.833
		c-31.49,1.852-17.463-4.943-21.282-36.847c0.278-15.658-25.831-267.145-27.9-282.806
		c-15.383-116.683-22.023-194.008-22.023-194.008l-95.451-78.341l5.534-21.266h207.09c13.438,44.574,33.053,97.461,33.053,194.891
		C1072.964,1333.306,1048.855,1528.036,1046.376,1551.246z"/>
	<path style="fill:#122444;" d="M1006.4,1512.237c22.862-2.86,40.522,34.127,40.522,34.127c-6.7,50.179,9.151,92.035,8.089,176.275
		c-1.225,96.902-26.555,322.49-26.555,322.49c-15.165,2.792-33.484,9.516-46.519-5.986c0,0-12.43-235.816-17.987-317.656
		c-5.556-81.841,12.485-107.203,8.367-163.924C974.332,1523.262,988.626,1514.454,1006.4,1512.237z"/>
	<path style="fill:#4863A6;" d="M855.018,601.706c-53.916,0.033-66.575,98.825-76.156,131.729
		c-9.146,31.362-23.189,74.444-33.996,105.087c-6.689,18.945-15.268,26.263,5.878,39.669c32.459,20.59,47.003,2.249,52.385-9.759
		c18.836-41.984,71.183-173.489,79.322-212.456C891.285,613.649,855.018,601.706,855.018,601.706z"/>
	<path style="fill:#4E6CB3;" d="M1032.012,582.562c32.013,3.448,50.664,8.563,54.837,21.021
		c4.717,14.064-43.349,154.647-58.328,232.054c-9.152,47.347,28.042,138.617,27.17,146.558
		c-1.286,11.823-160.081,101.671-234.653,30.619c-7.299-6.948,28.712-142.386,29.12-168.65
		c0.986-62.528-22.824-61.975-30.09-109.784c-8.574-56.356,29.393-127.79,34.949-132.674c0,0,12.931-7.116,21.386-8.672
		c16.772-3.077,14.397,18.324,31.07,22.712c25.749,6.784,51.732,11.685,78.439,11.785L1032.012,582.562z"/>
	<path style="fill:#DAD6D2;" d="M1028.521,835.637c12.082-62.414,45.647-165.852,55.735-210.976
		c-14.26-0.03-28.521-0.455-41.866,3.816c-0.006,0.005-0.006,0.008-0.006,0.008c-22.622,27.47-28.526,57.852-32.253,92.33
		c-3.644,33.864-27.383,62.824-60.142,62.824c0,0,37.351,9.742,56.383,1.177c0,0-6.346,136.073,48.006,199.663
		c0.79-0.929,1.247-1.702,1.313-2.282C1056.563,974.254,1019.369,882.984,1028.521,835.637z"/>
	<path style="fill:#FABEAF;" d="M1032.012,582.562c-4.875,0.003-53.97-30.959-31.675-137.922l-11.014-2.301
		c-25.536,6.382-86.315,6.224-75.067,31.727c44.291,100.424-24.866,119.619-37.852,118.969
		c-17.507-0.874-12.126,79.172,57.298,79.172c69.408,0,89.851-63.236,94.089-72.428
		C1032.628,589.281,1032.012,582.562,1032.012,582.562z"/>
	<path style="fill:#FABEAF;" d="M779.036,856.2c-31.92-17.918-40.87,20.291-50.664,41.772
		c-13.307,29.164-59.308,121.804-65.666,128.801c-6.357,7.002-12.338,15.533-22.796,21.68
		c-12.082,7.095-20.928,14.683-28.319,26.525c-2.729,4.385-6.782,13.359-4.303,15.74c4.369,4.183,7.425,0.166,12.098-7.106
		c1.286-1.988,6.82-6.536,9.184-10.722c-3.638,14.007-23.129,32.149-26.288,49.384c-1.923,10.456-0.272,17.515,11.319,18.684
		c14.174,1.435,14.986-10.442,24.889-16.932c3.981-2.615,12.653-2.713,20.841-15.971c4.57-7.414,9.124-16.859,11.695-25.073
		c3.279-10.473,7.19-24.725,10.894-32.324c3.715-7.59,81.114-100.922,93.56-127.972C790.23,890.64,791.869,863.407,779.036,856.2z"
		/>
	<path style="fill:#4E6CB3;" d="M1062.5,591.125c53.91,0.662,51.421,99.432,60.627,132.442
		c8.781,31.465,22.312,74.713,32.759,105.481c6.472,19.022,14.969,26.438-6.335,39.596c-32.699,20.209-47.025,1.697-52.271-10.369
		c-18.341-42.202-58.072-167.729-65.747-206.788C1023.194,609.06,1062.5,591.125,1062.5,591.125z"/>
	<path style="fill:#FABEAF;" d="M1121.515,846.324c32.127-17.542,40.63,20.765,50.179,42.357
		c12.953,29.316,57.882,122.49,64.157,129.56c6.275,7.073,12.158,15.674,22.54,21.941c12,7.24,20.754,14.928,27.998,26.857
		c2.691,4.413,6.635,13.441,4.118,15.786c-4.401,4.137-7.419,0.076-12.005-7.242c-1.258-2.007-6.744-6.618-9.064-10.832
		c3.481,14.053,22.758,32.422,25.732,49.689c1.787,10.478,0.044,17.515-11.553,18.553c-14.19,1.266-14.866-10.622-24.687-17.229
		c-3.96-2.656-12.632-2.857-20.656-16.208c-4.483-7.468-8.927-16.965-11.401-25.207c-3.154-10.513-6.896-24.809-10.518-32.449
		c-3.617-7.634-79.926-101.867-92.063-129.059C1109.923,880.633,1108.594,853.379,1121.515,846.324z"/>
	<path style="fill:#DAD6D2;" d="M1003.034,546.941c-8.492-20.419-12.779-61.322-2.696-102.301h-9.173
		c-27.339,4.707-54.94,10.088-78.057,21.582c-0.447,2.309-0.153,4.902,1.149,7.844c8.753,19.844,13.024,36.474,14.222,50.449
		c10.813,0.602,22.666-0.332,33.859,1.449C978.766,528.578,993.256,538.495,1003.034,546.941z"/>
	<g>
		<g>
			<path style="fill:#FABEAF;" d="M883.032,342.994c-9.222,21.762-4.466,31.85-3.186,52.328c1.22,19.509,0.572,23.42,4.101,39.277
				c4.483,20.214,21.489,36.994,38.931,49.61c28.587,18.779,54.962-3.337,71.238-27.405c31.904-47.153,29.393-95.638,17.986-121.36
				c-16.036-37.182-51.584-38.866-86.327-30.817C925.776,304.627,897.506,308.87,883.032,342.994z"/>
		</g>
	</g>
	<g>
		<g>
			<g>
				
					<path style="fill:none;stroke:#540806;stroke-width:1.9544;stroke-linecap:round;stroke-linejoin:round;stroke-miterlimit:10;" d="
					M908.052,402.708c0,0-1.286-4.137-5.927-4.137c-4.636,0-5.393,4.137-5.393,4.137"/>
			</g>
			<g>
				
					<path style="fill:none;stroke:#540806;stroke-width:1.9544;stroke-linecap:round;stroke-linejoin:round;stroke-miterlimit:10;" d="
					M963.809,402.708c0,0,1.296-4.137,5.932-4.137c4.635,0,5.387,4.137,5.387,4.137"/>
			</g>
			<g>
				<g>
					<path style="fill:#E0796F;" d="M957.327,387.359c3.977,0.136,7.016-2.947,11.18-2.773c4.174,0.174,8.426,3.483,12.468,1.808
						c1.415-0.586,2.179-1.984,1.4-3.44c-2.213-4.137-9.463-5.634-13.868-5.535c-4.72,0.105-11.421,2.972-12.861,7.732
						C955.306,386.27,956.222,387.321,957.327,387.359L957.327,387.359z"/>
				</g>
			</g>
			<g>
				<g>
					<path style="fill:#E0796F;" d="M914.984,385.151c-1.377-4.533-7.4-7.191-11.861-7.633c-4.613-0.457-12.534,1.068-14.873,5.436
						c-0.78,1.456-0.015,2.854,1.4,3.44c3.628,1.503,7.721-1.059,11.408-1.673c4.675-0.779,7.871,2.788,12.245,2.638
						C914.406,387.321,915.324,386.27,914.984,385.151L914.984,385.151z"/>
				</g>
			</g>
		</g>
		<path style="fill:#F9B0A3;" d="M995.783,413.682c-12.637-6.82-42.559,16.265-22.742,27.23
			C992.853,451.874,1008.41,420.501,995.783,413.682z"/>
		<path style="fill:#F9B0A3;" d="M880.838,413.27c0.408,6.962,1.013,12.191,3.148,21.799c0.414,1.836,0.953,3.636,1.563,5.414
			c4.712,3.069,10.682,3.982,17.099,0.428C922.002,430.203,893.922,407.943,880.838,413.27z"/>
		<g>
			<g>
				<g>
					<path style="fill:#BDB7B2;" d="M915.289,387.198c1.215,2.334,2.713,4.49,3.986,6.795c1.425,2.579,2.371,5.293,3.5,7.999
						c0.105,0.252,0.548,0.255,0.522-0.071c-0.43-5.469-4.205-10.959-7.955-14.764C915.314,387.13,915.272,387.165,915.289,387.198
						L915.289,387.198z"/>
				</g>
			</g>
			<g>
				<g>
					<path style="fill:#BDB7B2;" d="M926.264,413.804c0.61,6.949-1.948,12.717-2.752,19.405c-0.529,4.398,7.15,4.603,9.829,3.576
						c0.235-0.09,0.146-0.455-0.106-0.384c-2.039,0.571-8.603,0.421-8.501-3.191c0.061-2.16,0.845-4.355,1.389-6.427
						c1.157-4.404,1.324-8.548,0.467-13.022C926.555,413.577,926.248,413.617,926.264,413.804L926.264,413.804z"/>
				</g>
			</g>
		</g>
		<g>
			<g>
				<g>
					<path style="fill:#DAD6D2;" d="M937.843,471.63c2.538-1.923,5.173-2.583,8.209-3.246c0.527-0.115,0.6-0.877,0.148-1.13
						c-3.343-1.871-7.185,0.571-9.314,3.135C936.356,471.027,937.077,472.21,937.843,471.63L937.843,471.63z"/>
				</g>
			</g>
		</g>
		<g>
			<path style="fill:#F9BBB5;" d="M959.113,446.879c0,0-6.373,1.858-17.006,1.858c-1.743,0-4.663,0.18-6.831,3.266
				c-1.863-1.202-3.344-2.299-5.927-1.19c-3.704,1.582-8.122,1.405-8.122,1.405s1.432,2.713,3.579,5.074
				c2.811,3.094,6.711,6.177,12.637,5.673c8.928-0.76,14.25-5.273,17.126-9.097C957.076,450.534,959.113,446.879,959.113,446.879z"
				/>
			<g>
				<g>
					<path style="fill:#F9BBB5;" d="M959.053,446.777c-10.443,6.487-26.402,15.676-37.742,5.357
						c-0.114-0.104-0.265,0.051-0.167,0.167c8.881,10.552,30.353,3.62,38.052-5.338
						C959.281,446.865,959.173,446.702,959.053,446.777L959.053,446.777z"/>
				</g>
			</g>
		</g>
	</g>
	<g>
		<path style="fill:#F69284;" d="M1079.648,330.743c-23.706-118.62-98.991-89.554-99.552-90.082
			c-29-27.48-81.685-6.842-111.558,57.849c-8.116,17.594-22.469,125.317-6.384,87.269c16.069-38.054,79.512-17.998,95.173-60.627
			c1.787,36.983,34.099,39.9,37.466,57.671c4.145,21.892,16.374,21.283,20.547,15.707c5.834-7.776,2.217,8.16-5.714,29.298
			c-3.072,8.173-13.041,40.842-9.288,60.657c3.764,19.822,27.22,35.502,10.35,76.274c-22.148,53.57,10.687,69.656,9.206,113.304
			c-1.487,43.651-19.729,43.651-24.294,72.967c-4.559,29.317,9.772,100.528,44.237,82.538c7.713-4.031,4.069-19.624,5.235-27.865
			c1.209-8.547,3.508-17.273,5.452-25.708c8.253-35.916,33.843-60.872,48.529-93.625c14.152-31.583,25.204-65.586,15.775-100.5
			c-3.579-13.25-8.17-25.972-14.321-38.304c-10.066-20.146-20.366-38.272-26.369-60.273
			C1059.548,433.978,1090.264,383.894,1079.648,330.743z"/>
		<g>
			<path style="fill:#FABEAF;" d="M1006.482,403.171c5.12-13.359,27.906-23.164,27.906-1.152c0,18.128-25.199,52.41-30.172,17.556
				L1006.482,403.171z"/>
		</g>
	</g>
</g>
</svg>
